# xmcd
#
# Track frame offsets: 
#        150
#        34061
#        56226
#        69903
#        89580
#        106261
#
# Disc length: 1890 seconds
#
# Revision: 0
# Processed by: cddbd v1.5.2PL0 Copyright (c) Steve Scherf et al.
# Submitted via: ExactAudioCopy v0.99pb4
#
DISCID=4c076006
DTITLE=Randy Dunn - Instrumentals
DYEAR=2002
DGENRE=Instrumental
TTITLE0=My Beloved
TTITLE1=Adoracion
TTITLE2=Capricious
TTITLE3=Glossalalia
TTITLE4=Joyous Melody
TTITLE5=Peaceful Farewell
EXTD=
EXTT0=
EXTT1=
EXTT2=
EXTT3=
EXTT4=
EXTT5=
PLAYORDER=
